HIERARCHY
ROOT Pelvis
{
	OFFSET 0.000000 0.000000 0.000000
	CHANNELS 6 Xposition Yposition Zposition Xrotation Yrotation Zrotation
	JOINT LeftUpLeg_virtual
	{
		OFFSET 0.000000 0.000000 0.000000
		CHANNELS 3 Xrotation Yrotation Zrotation
		JOINT LeftUpLeg
		{
			OFFSET 18.735201 -5.666702 -4.541200
			CHANNELS 3 Xrotation Yrotation Zrotation
			JOINT LeftLeg
			{
				OFFSET -0.021200 -31.938179 0.493100
				CHANNELS 3 Xrotation Yrotation Zrotation
				JOINT LeftFoot
				{
					OFFSET 0.021200 -31.938179 -4.336299
					CHANNELS 3 Xrotation Yrotation Zrotation
					JOINT LeftToeBase
					{
						OFFSET 0.943001 -26.722000 15.023500
						CHANNELS 3 Xrotation Yrotation Zrotation
						End Site
						{
							OFFSET 0 0 0
						}
					}
				}
			}
		}
	}
	JOINT RightUpLeg_virtual
	{
		OFFSET 0.000000 0.000000 0.000000
		CHANNELS 3 Xrotation Yrotation Zrotation
		JOINT RightUpLeg
		{
			OFFSET -18.735201 -5.666702 -4.541200
			CHANNELS 3 Xrotation Yrotation Zrotation
			JOINT RightLeg
			{
				OFFSET 0.018946 -31.938133 0.493100
				CHANNELS 3 Xrotation Yrotation Zrotation
				JOINT RightFoot
				{
					OFFSET -0.018946 -31.938126 -4.336299
					CHANNELS 3 Xrotation Yrotation Zrotation
					JOINT RightToeBase
					{
						OFFSET -0.943001 -26.722004 15.023500
						CHANNELS 3 Xrotation Yrotation Zrotation
						End Site
						{
							OFFSET 0 0 0
						}
					}
				}
			}
		}
	}
	JOINT Hips_virtual
	{
		OFFSET 0.000000 0.000000 0.000000
		CHANNELS 3 Xrotation Yrotation Zrotation
		JOINT Hips
		{
			OFFSET -0.000000 -0.000000 -0.000000
			CHANNELS 3 Xrotation Yrotation Zrotation
			JOINT Spine
			{
				OFFSET 0.000000 10.199997 -0.299500
				CHANNELS 3 Xrotation Yrotation Zrotation
				JOINT Spine1
				{
					OFFSET 0.000000 11.900002 -1.516600
					CHANNELS 3 Xrotation Yrotation Zrotation
					JOINT Spine2
					{
						OFFSET 0.000000 13.600006 -2.842500
						CHANNELS 3 Xrotation Yrotation Zrotation
						JOINT Neck_virtual
						{
							OFFSET 0.000000 0.000000 0.000000
							CHANNELS 3 Xrotation Yrotation Zrotation
							JOINT Neck
							{
								OFFSET 0.000000 9.624100 -2.890100
								CHANNELS 3 Xrotation Yrotation Zrotation
								JOINT Head
								{
									OFFSET 0.000000 14.068802 -1.351900
									CHANNELS 3 Xrotation Yrotation Zrotation
									End Site
									{
										OFFSET 0 0 0
									}
								}
							}
						}
						JOINT LeftShoulder_virtual
						{
							OFFSET 0.000000 0.000000 0.000000
							CHANNELS 3 Xrotation Yrotation Zrotation
							JOINT LeftShoulder
							{
								OFFSET 15.263000 10.923401 -0.547700
								CHANNELS 3 Xrotation Yrotation Zrotation
								JOINT LeftArm
								{
									OFFSET 25.438599 -2.830597 -13.032500
									CHANNELS 3 Xrotation Yrotation Zrotation
									JOINT LeftForeArm
									{
										OFFSET 29.960503 0.000000 0.000000
										CHANNELS 3 Xrotation Yrotation Zrotation
										JOINT LeftHand
										{
											OFFSET 27.849251 0.000000 0.000000
											CHANNELS 3 Xrotation Yrotation Zrotation
											End Site
											{
												OFFSET 0 0 0
											}
										}
									}
								}
							}
						}
						JOINT RightShoulder_virtual
						{
							OFFSET 0.000000 0.000000 0.000000
							CHANNELS 3 Xrotation Yrotation Zrotation
							JOINT RightShoulder
							{
								OFFSET -15.263000 10.923401 -0.547700
								CHANNELS 3 Xrotation Yrotation Zrotation
								JOINT RightArm
								{
									OFFSET -25.438599 -2.830597 -13.032500
									CHANNELS 3 Xrotation Yrotation Zrotation
									JOINT RightForeArm
									{
										OFFSET -29.960503 0.000000 0.000000
										CHANNELS 3 Xrotation Yrotation Zrotation
										JOINT RightHand
										{
											OFFSET -27.849251 0.000000 0.000000
											CHANNELS 3 Xrotation Yrotation Zrotation
											End Site
											{
												OFFSET 0 0 0
											}
										}
									}
								}
							}
						}
					}
				}
			}
		}
	}
}
MOTION
Frames: 5
Frame Time: 0.03333333
0.835654 92.999741 4.378059 0.000000 0.000000 0.000000 -3.406696 5.371673 -2.235276 -10.974845 9.013650 12.745246 21.608543 -6.154303 0.929182 -4.264788 4.290880 -8.853956 0.000000 0.000000 0.000000 -3.758745 6.612677 -2.591999 -6.172453 -7.053984 0.710036 11.375680 4.114127 -0.200220 -2.858499 0.158448 3.887112 0.000000 0.000000 0.000000 -3.849119 5.885930 -2.008093 0.131034 0.209478 -1.127972 8.277220 -0.096218 2.454507 0.532170 -0.745875 -0.046599 0.000000 0.000000 0.000000 -3.161048 -0.501282 -0.486797 -0.111333 -0.301113 0.322134 0.000000 0.000000 0.000000 -2.568479 -0.518925 -0.772800 1.237095 -5.988016 -4.119596 -0.112393 -2.328623 -74.306612 7.779448 -19.276104 0.847535 0.000000 0.000000 0.000000 -2.700441 -0.414698 -0.379068 2.513323 8.294740 2.867698 -0.537616 3.842393 75.339473 15.411823 15.562258 -3.175925 0.000000 0.000000 0.000000 
0.899922 92.969406 4.326149 0.000000 0.000000 0.000000 -3.461657 5.160844 -2.252863 -10.898652 9.238362 12.668290 21.565219 -5.950017 0.840180 -4.368595 4.425764 -8.693262 0.000000 0.000000 0.000000 -3.780695 6.380943 -2.664647 -6.500644 -7.145040 0.715958 11.698300 4.115070 -0.176168 -2.321252 0.274285 3.912136 0.000000 0.000000 0.000000 -3.857480 5.762158 -2.064776 0.157744 0.103593 -1.093964 8.466395 -0.102481 2.397619 0.510460 -0.768640 -0.009980 0.000000 0.000000 0.000000 -3.126044 -0.521498 -0.473828 -0.124104 -0.287199 0.317280 0.000000 0.000000 0.000000 -2.569102 -0.540538 -0.731370 1.215004 -5.985165 -4.190387 -0.214428 -2.434878 -74.278970 7.831597 -19.319245 0.860988 0.000000 0.000000 0.000000 -2.738275 -0.433479 -0.364740 2.491872 8.324824 2.859166 -0.441419 3.966901 75.333414 15.387141 15.585833 -3.137691 0.000000 0.000000 0.000000 
0.923400 92.933762 4.373409 0.000000 0.000000 0.000000 -3.455392 4.726301 -2.298179 -10.661183 9.118788 12.571133 21.559489 -5.861684 0.803271 -5.134669 4.302106 -8.487174 0.000000 0.000000 0.000000 -3.783284 6.000096 -2.729089 -6.840468 -7.033238 0.828731 12.121260 4.214505 -0.237918 -1.843377 0.447063 3.780673 0.000000 0.000000 0.000000 -3.858805 5.444473 -2.140239 0.138365 0.045331 -1.037609 8.824230 -0.103541 2.347263 0.469660 -0.798891 0.048906 0.000000 0.000000 0.000000 -3.151819 -0.552029 -0.459789 -0.161338 -0.258684 0.308589 0.000000 0.000000 0.000000 -2.596177 -0.567811 -0.687000 1.163026 -5.920433 -4.404926 -0.231934 -2.542914 -74.162652 7.895957 -19.431403 0.826339 0.000000 0.000000 0.000000 -2.797247 -0.462437 -0.345723 2.435439 8.296662 2.887157 -0.225695 4.393630 75.168950 15.344652 15.766991 -3.120133 0.000000 0.000000 0.000000 
0.862566 92.882698 4.487572 0.000000 0.000000 0.000000 -3.353477 4.138681 -2.375381 -10.172336 8.755435 12.530749 21.391818 -5.895729 0.803416 -6.285113 3.883158 -8.421279 0.000000 0.000000 0.000000 -3.773858 5.491559 -2.793939 -7.085288 -6.727510 1.039808 12.543535 4.436146 -0.315362 -1.581819 0.666469 3.604231 0.000000 0.000000 0.000000 -3.851748 4.967249 -2.242674 0.091671 -0.011791 -0.906527 9.274669 -0.104434 2.316962 0.419369 -0.841348 0.131022 0.000000 0.000000 0.000000 -3.235022 -0.589024 -0.433894 -0.207506 -0.219124 0.300778 0.000000 0.000000 0.000000 -2.654378 -0.598010 -0.632240 1.089070 -5.802315 -4.725669 -0.200347 -2.620349 -73.928144 7.967262 -19.578727 0.736645 0.000000 0.000000 0.000000 -2.876392 -0.500302 -0.312545 2.346076 8.206734 2.956708 0.082993 5.061065 74.816260 15.279529 16.073870 -3.110971 0.000000 0.000000 0.000000 
0.701918 92.823593 4.639130 0.000000 0.000000 0.000000 -3.193408 3.514711 -2.469033 -9.610011 8.479609 12.655749 21.021616 -5.833614 0.753357 -7.236912 3.348682 -8.478415 0.000000 0.000000 0.000000 -3.749077 4.872779 -2.864654 -7.277006 -6.421063 1.296981 13.006820 4.737024 -0.313224 -1.446141 0.921217 3.447563 0.000000 0.000000 0.000000 -3.833296 4.336426 -2.360193 0.023007 -0.045043 -0.790645 9.727162 -0.114349 2.309294 0.379181 -0.901981 0.235295 0.000000 0.000000 0.000000 -3.355863 -0.629548 -0.381123 -0.238569 -0.175874 0.295526 0.000000 0.000000 0.000000 -2.726128 -0.633375 -0.555828 1.001206 -5.671966 -5.121614 -0.166443 -2.680121 -73.563849 8.050154 -19.742182 0.584994 0.000000 0.000000 0.000000 -2.977206 -0.543257 -0.250845 2.230008 8.081017 3.073630 0.458961 5.882255 74.272126 15.186096 16.453762 -3.097763 0.000000 0.000000 0.000000 
